<svg width="35" height="30" viewBox="0 0 35 30" fill="none" xmlns="http://www.w3.org/2000/svg">
<path d="M21.4692 29.7592C21.5476 29.8948 21.6926 29.9784 21.8496 29.9784H25.2666C25.6048 29.9784 25.8161 29.6131 25.647 29.3208L13.2346 7.86425C13.0656 7.572 12.6429 7.572 12.4738 7.86425C8.34493 15.0016 4.20619 22.1711 0.0594594 29.3425C-0.109529 29.6348 0.101807 30 0.439898 30H16.4449C16.783 30 16.9944 29.6347 16.8253 29.3424L15.1882 26.5124C15.1097 26.3768 14.9647 26.2932 14.8078 26.2932H6.62176C6.45269 26.2932 6.34703 26.1106 6.43156 25.9644L12.6625 15.1933C12.7471 15.0472 12.9584 15.0472 13.0429 15.1933L21.4692 29.7592Z" fill="#BF4040"/>
<path d="M15.1924 3.16491C15.1139 3.30055 15.1139 3.46765 15.1924 3.60329L30.3233 29.7592C30.4017 29.8948 30.5468 29.9784 30.7037 29.9784H34.1118C34.45 29.9784 34.6613 29.6131 34.4922 29.3208L17.6572 0.219188C17.4882 -0.0730631 17.0655 -0.0730625 16.8964 0.219189L15.1924 3.16491Z" fill="#BF4040"/>
</svg>
