<svg width="128" height="20" viewBox="0 0 128 20" fill="none" xmlns="http://www.w3.org/2000/svg">
<path d="M13.5324 19.6674C13.5818 19.7529 13.6732 19.8056 13.7722 19.8056H15.926C16.1391 19.8056 16.2723 19.5753 16.1658 19.3911L8.34201 5.86664C8.23545 5.68243 7.96904 5.68243 7.86247 5.86664C5.25995 10.3655 2.65123 14.8845 0.0374783 19.4048C-0.069038 19.589 0.0641708 19.8192 0.277275 19.8192H10.3655C10.5786 19.8192 10.7118 19.5889 10.6053 19.4047L9.57336 17.6209C9.5239 17.5354 9.4325 17.4827 9.33359 17.4827H4.17381C4.06724 17.4827 4.00064 17.3676 4.05392 17.2755L7.98142 10.4863C8.03471 10.3942 8.16791 10.3942 8.22119 10.4863L13.5324 19.6674Z" fill="#BF4040"/>
<path d="M9.576 2.90457C9.52655 2.99006 9.52655 3.09539 9.576 3.18088L19.1133 19.6674C19.1627 19.7529 19.2541 19.8056 19.3531 19.8056H21.5013C21.7144 19.8056 21.8476 19.5753 21.741 19.3911L11.1296 1.04783C11.0231 0.863615 10.7567 0.863615 10.6501 1.04783L9.576 2.90457Z" fill="#BF4040"/>
</svg>
